<svg width="40" height="40" viewBox="0 0 40 40" fill="none" xmlns="http://www.w3.org/2000/svg">
<path fill-rule="evenodd" clip-rule="evenodd" d="M20.0001 6.3068C15.95 6.3068 12.6668 9.43915 12.6668 13.3031C12.6668 15.7065 13.9372 17.827 15.8722 19.0865C11.3862 20.6543 8.15473 24.7043 8.00533 29.4933C7.9889 30.02 8.4231 30.4596 8.97514 30.4753C9.52718 30.491 9.98802 30.0767 10.0044 29.55C10.1646 24.4153 14.5786 20.2993 19.9999 20.2993C25.4212 20.2993 29.8352 24.4153 29.9954 29.55C30.0119 30.0767 30.4727 30.491 31.0247 30.4753C31.5768 30.4596 32.011 30.02 31.9945 29.4933C31.8451 24.7044 28.6138 20.6544 24.1278 19.0866C26.0629 17.827 27.3333 15.7066 27.3333 13.3031C27.3333 9.43915 24.0501 6.3068 20.0001 6.3068ZM14.6668 13.3031C14.6668 10.4929 17.0546 8.21487 20.0001 8.21487C22.9455 8.21487 25.3333 10.4929 25.3333 13.3031C25.3333 16.1132 22.9455 18.3912 20.0001 18.3912C17.0546 18.3912 14.6668 16.1132 14.6668 13.3031Z" fill="#24292E"/>
</svg>
