<svg width="32" height="32" viewBox="0 0 32 32" fill="none" xmlns="http://www.w3.org/2000/svg">
<path fill-rule="evenodd" clip-rule="evenodd" d="M7.62639 7.62623C8.01691 7.23571 8.65008 7.23571 9.0406 7.62623L16.0002 14.5857L22.9598 7.62623C23.3503 7.23571 23.9834 7.23571 24.3739 7.62623C24.7644 8.01675 24.7644 8.64992 24.3739 9.04044L17.4144 16L24.3739 22.9596C24.7644 23.3501 24.7644 23.9832 24.3739 24.3737C23.9834 24.7643 23.3503 24.7643 22.9598 24.3737L16.0002 17.4143L9.0406 24.3737C8.65008 24.7643 8.01691 24.7643 7.62639 24.3737C7.23587 23.9832 7.23587 23.3501 7.62639 22.9596L14.5859 16L7.62639 9.04044C7.23587 8.64992 7.23587 8.01675 7.62639 7.62623Z" fill="#A0A0A0"/>
</svg>
