<svg width="40" height="40" viewBox="0 0 40 40" fill="none" xmlns="http://www.w3.org/2000/svg">
<path fill-rule="evenodd" clip-rule="evenodd" d="M16.3334 4.39873C10.2582 4.39873 5.33337 9.09723 5.33337 14.8931C5.33337 20.689 10.2582 25.3875 16.3334 25.3875C19.0109 25.3875 21.4649 24.4749 23.3724 22.9578L30.9596 30.1963C31.3501 30.5688 31.9833 30.5688 32.3738 30.1963C32.7643 29.8237 32.7643 29.2196 32.3738 28.8471L24.7866 21.6086C26.3767 19.7888 27.3334 17.4475 27.3334 14.8931C27.3334 9.09723 22.4085 4.39873 16.3334 4.39873ZM7.33337 14.8931C7.33337 10.151 11.3628 6.3068 16.3334 6.3068C21.3039 6.3068 25.3334 10.151 25.3334 14.8931C25.3334 19.6352 21.3039 23.4794 16.3334 23.4794C11.3628 23.4794 7.33337 19.6352 7.33337 14.8931Z" fill="#24292E"/>
</svg>
