<svg width="40" height="40" viewBox="0 0 40 40" fill="none" xmlns="http://www.w3.org/2000/svg">
<path fill-rule="evenodd" clip-rule="evenodd" d="M17.2933 18.4225C17.2933 19.8487 18.5052 21.0049 20.0002 21.0049C21.4951 21.0049 22.707 19.8487 22.707 18.4225C22.707 17.2 21.8166 16.1759 20.6208 15.9083C20.6234 15.8859 20.6248 15.8631 20.6248 15.8401V14.4496C20.6248 14.4494 20.6248 14.4497 20.6248 14.4496C20.6251 13.6818 21.2775 13.059 22.0823 13.059H27.9124C29.6374 13.059 31.0357 11.725 31.0357 10.0793V9.41427C32.2295 9.14524 33.1179 8.12208 33.1179 6.90096C33.1179 5.47474 31.906 4.31855 30.4111 4.31855C28.9161 4.31855 27.7042 5.47474 27.7042 6.90096C27.7042 8.12208 28.5926 9.14524 29.7864 9.41427V10.0793C29.7864 11.0667 28.9474 11.8671 27.9124 11.8671H22.0823C21.5457 11.8671 21.0455 12.0161 20.6248 12.2731V9.48338C20.6248 9.46031 20.6234 9.43756 20.6208 9.41518C21.8166 9.14755 22.707 8.12346 22.707 6.90096C22.707 5.47474 21.4951 4.31855 20.0002 4.31855C18.5052 4.31855 17.2933 5.47474 17.2933 6.90096C17.2933 8.12346 18.1837 9.14755 19.3796 9.41518C19.3769 9.43756 19.3755 9.46031 19.3755 9.48338L19.3755 14.4489C19.3755 14.4491 19.3755 14.4487 19.3755 14.4489V15.8401C19.3755 15.8631 19.3769 15.8859 19.3796 15.9083C18.1837 16.1759 17.2933 17.2 17.2933 18.4225ZM20.0002 19.813C19.1952 19.813 18.5426 19.1905 18.5426 18.4225C18.5426 17.6545 19.1952 17.032 20.0002 17.032C20.8051 17.032 21.4577 17.6545 21.4577 18.4225C21.4577 19.1905 20.8051 19.813 20.0002 19.813ZM20.0002 8.29149C19.1952 8.29149 18.5426 7.66893 18.5426 6.90096C18.5426 6.13299 19.1952 5.51043 20.0002 5.51043C20.8051 5.51043 21.4577 6.13299 21.4577 6.90096C21.4577 7.66893 20.8051 8.29149 20.0002 8.29149ZM28.9535 6.90096C28.9535 7.66893 29.6061 8.29149 30.4111 8.29149C31.216 8.29149 31.8686 7.66893 31.8686 6.90096C31.8686 6.13299 31.216 5.51043 30.4111 5.51043C29.6061 5.51043 28.9535 6.13299 28.9535 6.90096Z" fill="#24292E"/>
<path fill-rule="evenodd" clip-rule="evenodd" d="M12.0876 29.944C12.0876 31.3703 13.2995 32.5265 14.7945 32.5265C16.2894 32.5265 17.5013 31.3703 17.5013 29.944C17.5013 28.7229 16.6129 27.6998 15.4191 27.4307V24.5806H17.5013C19.2262 24.5806 20.6246 23.2465 20.6246 21.6009V20.9358C21.8184 20.6668 22.7067 19.6436 22.7067 18.4225C22.7067 16.9963 21.4949 15.8401 19.9999 15.8401C18.505 15.8401 17.2931 16.9963 17.2931 18.4225C17.2931 19.6436 18.1815 20.6668 19.3753 20.9358V21.6009C19.3753 22.5882 18.5363 23.3887 17.5013 23.3887H12.0876C11.0527 23.3887 10.2137 22.5882 10.2137 21.6009V20.9358C11.4075 20.6668 12.2959 19.6436 12.2959 18.4225C12.2959 16.9963 11.084 15.8401 9.58903 15.8401C8.09409 15.8401 6.8822 16.9963 6.8822 18.4225C6.8822 19.6436 7.77058 20.6668 8.96438 20.9358V21.6009C8.96438 23.2465 10.3627 24.5806 12.0876 24.5806H14.1698V27.4307C12.976 27.6998 12.0876 28.7229 12.0876 29.944ZM14.7945 31.3346C13.9895 31.3346 13.337 30.712 13.337 29.944C13.337 29.1761 13.9895 28.5535 14.7945 28.5535C15.5994 28.5535 16.252 29.1761 16.252 29.944C16.252 30.712 15.5994 31.3346 14.7945 31.3346ZM9.58903 19.813C8.78406 19.813 8.13151 19.1905 8.13151 18.4225C8.13151 17.6545 8.78406 17.032 9.58903 17.032C10.394 17.032 11.0466 17.6545 11.0466 18.4225C11.0466 19.1905 10.394 19.813 9.58903 19.813ZM18.5424 18.4225C18.5424 19.1905 19.1949 19.813 19.9999 19.813C20.8049 19.813 21.4574 19.1905 21.4574 18.4225C21.4574 17.6545 20.8049 17.032 19.9999 17.032C19.1949 17.032 18.5424 17.6545 18.5424 18.4225Z" fill="#24292E"/>
</svg>
